<?xml version="1.0" encoding="UTF-8" standalone="no"?>
<!-- Created with Inkscape (http://www.inkscape.org/) -->

<svg
   xmlns:dc="http://purl.org/dc/elements/1.1/"
   xmlns:cc="http://creativecommons.org/ns#"
   xmlns:rdf="http://www.w3.org/1999/02/22-rdf-syntax-ns#"
   xmlns:svg="http://www.w3.org/2000/svg"
   xmlns="http://www.w3.org/2000/svg"
   xmlns:sodipodi="http://sodipodi.sourceforge.net/DTD/sodipodi-0.dtd"
   xmlns:inkscape="http://www.inkscape.org/namespaces/inkscape"
   id="svg3454"
   version="1.1"
   inkscape:version="0.91 r13725"
   xml:space="preserve"
   width="1000"
   height="1000"
   viewBox="0 0 1000 1000"
   sodipodi:docname="chessboard.svg"><metadata
     id="metadata3460"><rdf:RDF><cc:Work
         rdf:about=""><dc:format>image/svg+xml</dc:format><dc:type
           rdf:resource="http://purl.org/dc/dcmitype/StillImage" /><dc:title></dc:title></cc:Work></rdf:RDF></metadata><defs
     id="defs3458"><clipPath
       clipPathUnits="userSpaceOnUse"
       id="clipPath3468"><path
         d="M 0,0 800,0 800,800 0,800 0,0 Z"
         id="path3470"
         inkscape:connector-curvature="0" /></clipPath><radialGradient
       fx="0"
       fy="0"
       cx="0"
       cy="0"
       r="1"
       gradientUnits="userSpaceOnUse"
       gradientTransform="matrix(400,0,0,-400,400,400)"
       spreadMethod="pad"
       id="radialGradient3476"><stop
         style="stop-opacity:1;stop-color:#f5f5f5"
         offset="0"
         id="stop3478" /><stop
         style="stop-opacity:1;stop-color:#d9d9d9"
         offset="0.814634"
         id="stop3480" /><stop
         style="stop-opacity:1;stop-color:#c5c5c5"
         offset="0.995122"
         id="stop3482" /><stop
         style="stop-opacity:1;stop-color:#c5c5c5"
         offset="1"
         id="stop3484" /></radialGradient><clipPath
       clipPathUnits="userSpaceOnUse"
       id="clipPath3756"><path
         d="M 0,800 800,800 800,0 0,0 0,800 Z"
         id="path3758"
         inkscape:connector-curvature="0" /></clipPath><clipPath
       clipPathUnits="userSpaceOnUse"
       id="clipPath3764"><path
         d="m 64.1074,551.11 671.7856,0 0,-270 -671.7856,0 0,270 z"
         id="path3766"
         inkscape:connector-curvature="0" /></clipPath><clipPath
       clipPathUnits="userSpaceOnUse"
       id="clipPath3768"><path
         d="m 735.893,281.11 -671.786,0 167.143,270 337.5,0 167.143,-270 z"
         id="path3770"
         inkscape:connector-curvature="0" /></clipPath><linearGradient
       x1="0"
       y1="0"
       x2="1"
       y2="0"
       gradientUnits="userSpaceOnUse"
       gradientTransform="matrix(-1.2e-5,275.00259,275.00259,1.2e-5,400.00049,276.35937)"
       spreadMethod="pad"
       id="linearGradient3772"><stop
         style="stop-opacity:1;stop-color:#ffffff"
         offset="0"
         id="stop3774" /><stop
         style="stop-opacity:1;stop-color:#1d1d1b"
         offset="1"
         id="stop3776" /></linearGradient><clipPath
       clipPathUnits="userSpaceOnUse"
       id="clipPath3798"><path
         d="M 0,800 800,800 800,0 0,0 0,800 Z"
         id="path3800"
         inkscape:connector-curvature="0" /></clipPath><clipPath
       clipPathUnits="userSpaceOnUse"
       id="clipPath3926"><path
         d="M 0,800 800,800 800,0 0,0 0,800 Z"
         id="path3928"
         inkscape:connector-curvature="0" /></clipPath></defs><sodipodi:namedview
     pagecolor="#ffffff"
     bordercolor="#666666"
     borderopacity="1"
     objecttolerance="10"
     gridtolerance="10"
     guidetolerance="10"
     inkscape:pageopacity="0"
     inkscape:pageshadow="2"
     inkscape:window-width="1280"
     inkscape:window-height="689"
     id="namedview3456"
     showgrid="false"
     inkscape:snap-text-baseline="true"
     inkscape:zoom="0.61802395"
     inkscape:cx="527.3098"
     inkscape:cy="-163.41815"
     inkscape:window-x="0"
     inkscape:window-y="1"
     inkscape:window-maximized="1"
     inkscape:current-layer="g3462" /><g
     id="g3462"
     inkscape:groupmode="layer"
     inkscape:label="05"
     transform="matrix(1.25,0,0,-1.25,0,1000)"><g
       id="g3464"><g
         id="g3466"
         clip-path="url(#clipPath3468)"><g
           id="g3472"><g
             id="g3474"><path
               d="M 0,0 800,0 800,800 0,800 0,0 Z"
               style="fill:url(#radialGradient3476);stroke:none"
               id="path3486"
               inkscape:connector-curvature="0" /></g></g></g></g><g
       id="g3488"
       transform="translate(735.8926,281.1104)"><path
         d="m 0,0 -671.785,0 167.142,270 337.5,0 L 0,0 Z"
         style="fill:#683c11;fill-opacity:1;fill-rule:nonzero;stroke:none"
         id="path3490"
         inkscape:connector-curvature="0" /></g><g
       id="g3492"
       transform="translate(703.7734,291.6104)"><path
         d="m 0,0 -607.547,0 142.154,249 323.239,0 L 0,0 Z"
         style="fill:#caba9f;fill-opacity:1;fill-rule:nonzero;stroke:none"
         id="path3494"
         inkscape:connector-curvature="0" /></g><g
       id="g3496"
       transform="translate(182.2607,296.1104)"><path
         d="M 0,0 -72.579,0 -56.071,30 12.382,30 0,0 Z"
         style="fill:#ffffff;fill-opacity:1;fill-rule:nonzero;stroke:none"
         id="path3498"
         inkscape:connector-curvature="0" /></g><g
       id="g3500"
       transform="translate(194.6426,326.1104)"><path
         d="M 0,0 -68.453,0 -51.944,30 12.381,30 0,0 Z"
         style="fill:#000000;fill-opacity:1;fill-rule:nonzero;stroke:none"
         id="path3502"
         inkscape:connector-curvature="0" /></g><g
       id="g3504"
       transform="translate(207.0234,356.1104)"><path
         d="M 0,0 -64.325,0 -47.817,30 12.381,30 0,0 Z"
         style="fill:#ffffff;fill-opacity:1;fill-rule:nonzero;stroke:none"
         id="path3506"
         inkscape:connector-curvature="0" /></g><g
       id="g3508"
       transform="translate(219.4043,386.1104)"><path
         d="M 0,0 -60.198,0 -43.69,30 12.381,30 0,0 Z"
         style="fill:#000000;fill-opacity:1;fill-rule:nonzero;stroke:none"
         id="path3510"
         inkscape:connector-curvature="0" /></g><g
       id="g3512"
       transform="translate(231.7852,416.1104)"><path
         d="M 0,0 -56.071,0 -39.563,30 12.381,30 0,0 Z"
         style="fill:#ffffff;fill-opacity:1;fill-rule:nonzero;stroke:none"
         id="path3514"
         inkscape:connector-curvature="0" /></g><g
       id="g3516"
       transform="translate(244.166,446.1104)"><path
         d="M 0,0 -51.944,0 -35.437,30 12.381,30 0,0 Z"
         style="fill:#000000;fill-opacity:1;fill-rule:nonzero;stroke:none"
         id="path3518"
         inkscape:connector-curvature="0" /></g><g
       id="g3520"
       transform="translate(256.5469,476.1104)"><path
         d="M 0,0 -47.817,0 -31.31,30 12.381,30 0,0 Z"
         style="fill:#ffffff;fill-opacity:1;fill-rule:nonzero;stroke:none"
         id="path3522"
         inkscape:connector-curvature="0" /></g><g
       id="g3524"
       transform="translate(268.9277,506.1104)"><path
         d="M 0,0 -43.69,0 -27.182,30 12.382,30 0,0 Z"
         style="fill:#000000;fill-opacity:1;fill-rule:nonzero;stroke:none"
         id="path3526"
         inkscape:connector-curvature="0" /></g><g
       id="g3528"
       transform="translate(254.8408,296.1104)"><path
         d="M 0,0 -72.58,0 -60.198,30 8.254,30 0,0 Z"
         style="fill:#000000;fill-opacity:1;fill-rule:nonzero;stroke:none"
         id="path3530"
         inkscape:connector-curvature="0" /></g><g
       id="g3532"
       transform="translate(263.0947,326.1104)"><path
         d="M 0,0 -68.452,0 -56.071,30 8.254,30 0,0 Z"
         style="fill:#ffffff;fill-opacity:1;fill-rule:nonzero;stroke:none"
         id="path3534"
         inkscape:connector-curvature="0" /></g><g
       id="g3536"
       transform="translate(271.3486,356.1104)"><path
         d="M 0,0 -64.325,0 -51.944,30 8.254,30 0,0 Z"
         style="fill:#000000;fill-opacity:1;fill-rule:nonzero;stroke:none"
         id="path3538"
         inkscape:connector-curvature="0" /></g><g
       id="g3540"
       transform="translate(279.6025,386.1104)"><path
         d="M 0,0 -60.198,0 -47.817,30 8.254,30 0,0 Z"
         style="fill:#ffffff;fill-opacity:1;fill-rule:nonzero;stroke:none"
         id="path3542"
         inkscape:connector-curvature="0" /></g><g
       id="g3544"
       transform="translate(287.8564,416.1104)"><path
         d="M 0,0 -56.071,0 -43.69,30 8.254,30 0,0 Z"
         style="fill:#000000;fill-opacity:1;fill-rule:nonzero;stroke:none"
         id="path3546"
         inkscape:connector-curvature="0" /></g><g
       id="g3548"
       transform="translate(296.1104,446.1104)"><path
         d="M 0,0 -51.944,0 -39.563,30 8.254,30 0,0 Z"
         style="fill:#ffffff;fill-opacity:1;fill-rule:nonzero;stroke:none"
         id="path3550"
         inkscape:connector-curvature="0" /></g><g
       id="g3552"
       transform="translate(304.3643,476.1104)"><path
         d="M 0,0 -47.817,0 -35.437,30 8.254,30 0,0 Z"
         style="fill:#000000;fill-opacity:1;fill-rule:nonzero;stroke:none"
         id="path3554"
         inkscape:connector-curvature="0" /></g><g
       id="g3556"
       transform="translate(312.6182,506.1104)"><path
         d="M 0,0 -43.69,0 -31.309,30 8.255,30 0,0 Z"
         style="fill:#ffffff;fill-opacity:1;fill-rule:nonzero;stroke:none"
         id="path3558"
         inkscape:connector-curvature="0" /></g><g
       id="g3560"
       transform="translate(327.4199,296.1104)"><path
         d="M 0,0 -72.579,0 -64.325,30 4.127,30 0,0 Z"
         style="fill:#ffffff;fill-opacity:1;fill-rule:nonzero;stroke:none"
         id="path3562"
         inkscape:connector-curvature="0" /></g><g
       id="g3564"
       transform="translate(331.5469,326.1104)"><path
         d="M 0,0 -68.452,0 -60.198,30 4.127,30 0,0 Z"
         style="fill:#000000;fill-opacity:1;fill-rule:nonzero;stroke:none"
         id="path3566"
         inkscape:connector-curvature="0" /></g><g
       id="g3568"
       transform="translate(335.6738,356.1104)"><path
         d="M 0,0 -64.325,0 -56.071,30 4.127,30 0,0 Z"
         style="fill:#ffffff;fill-opacity:1;fill-rule:nonzero;stroke:none"
         id="path3570"
         inkscape:connector-curvature="0" /></g><g
       id="g3572"
       transform="translate(339.8008,386.1104)"><path
         d="M 0,0 -60.198,0 -51.944,30 4.127,30 0,0 Z"
         style="fill:#000000;fill-opacity:1;fill-rule:nonzero;stroke:none"
         id="path3574"
         inkscape:connector-curvature="0" /></g><g
       id="g3576"
       transform="translate(343.9277,416.1104)"><path
         d="M 0,0 -56.071,0 -47.817,30 4.127,30 0,0 Z"
         style="fill:#ffffff;fill-opacity:1;fill-rule:nonzero;stroke:none"
         id="path3578"
         inkscape:connector-curvature="0" /></g><g
       id="g3580"
       transform="translate(348.0547,446.1104)"><path
         d="M 0,0 -51.944,0 -43.69,30 4.127,30 0,0 Z"
         style="fill:#000000;fill-opacity:1;fill-rule:nonzero;stroke:none"
         id="path3582"
         inkscape:connector-curvature="0" /></g><g
       id="g3584"
       transform="translate(352.1816,476.1104)"><path
         d="m 0,0 -47.817,0 8.254,30 43.69,0 L 0,0 Z"
         style="fill:#ffffff;fill-opacity:1;fill-rule:nonzero;stroke:none"
         id="path3586"
         inkscape:connector-curvature="0" /></g><g
       id="g3588"
       transform="translate(356.3086,506.1104)"><path
         d="M 0,0 -43.69,0 -35.436,30 4.128,30 0,0 Z"
         style="fill:#000000;fill-opacity:1;fill-rule:nonzero;stroke:none"
         id="path3590"
         inkscape:connector-curvature="0" /></g><g
       id="g3592"
       transform="translate(399.999,296.1104)"><path
         d="M 0,0 -72.579,0 -68.452,30 0,30 0,0 Z"
         style="fill:#000000;fill-opacity:1;fill-rule:nonzero;stroke:none"
         id="path3594"
         inkscape:connector-curvature="0" /></g><g
       id="g3596"
       transform="translate(399.999,326.1104)"><path
         d="M 0,0 -68.452,0 -64.325,30 0,30 0,0 Z"
         style="fill:#ffffff;fill-opacity:1;fill-rule:nonzero;stroke:none"
         id="path3598"
         inkscape:connector-curvature="0" /></g><g
       id="g3600"
       transform="translate(399.999,356.1104)"><path
         d="M 0,0 -64.325,0 -60.198,30 0,30 0,0 Z"
         style="fill:#000000;fill-opacity:1;fill-rule:nonzero;stroke:none"
         id="path3602"
         inkscape:connector-curvature="0" /></g><g
       id="g3604"
       transform="translate(399.999,386.1104)"><path
         d="M 0,0 -60.198,0 -56.071,30 0,30 0,0 Z"
         style="fill:#ffffff;fill-opacity:1;fill-rule:nonzero;stroke:none"
         id="path3606"
         inkscape:connector-curvature="0" /></g><g
       id="g3608"
       transform="translate(399.999,416.1104)"><path
         d="M 0,0 -56.071,0 -51.944,30 0,30 0,0 Z"
         style="fill:#000000;fill-opacity:1;fill-rule:nonzero;stroke:none"
         id="path3610"
         inkscape:connector-curvature="0" /></g><g
       id="g3612"
       transform="translate(399.999,446.1104)"><path
         d="M 0,0 -51.944,0 -47.817,30 0,30 0,0 Z"
         style="fill:#ffffff;fill-opacity:1;fill-rule:nonzero;stroke:none"
         id="path3614"
         inkscape:connector-curvature="0" /></g><g
       id="g3616"
       transform="translate(399.999,476.1104)"><path
         d="M 0,0 -47.817,0 -43.69,30 0.001,30 0,0 Z"
         style="fill:#000000;fill-opacity:1;fill-rule:nonzero;stroke:none"
         id="path3618"
         inkscape:connector-curvature="0" /></g><g
       id="g3620"
       transform="translate(400,506.1104)"><path
         d="M 0,0 -43.691,0 -39.563,30 0,30 0,0 Z"
         style="fill:#ffffff;fill-opacity:1;fill-rule:nonzero;stroke:none"
         id="path3622"
         inkscape:connector-curvature="0" /></g><g
       id="g3624"
       transform="translate(472.5791,296.1104)"><path
         d="m 0,0 -72.58,0 0,30 68.453,0 L 0,0 Z"
         style="fill:#ffffff;fill-opacity:1;fill-rule:nonzero;stroke:none"
         id="path3626"
         inkscape:connector-curvature="0" /></g><g
       id="g3628"
       transform="translate(468.4521,326.1104)"><path
         d="m 0,0 -68.453,0 0,30 64.326,0 L 0,0 Z"
         style="fill:#000000;fill-opacity:1;fill-rule:nonzero;stroke:none"
         id="path3630"
         inkscape:connector-curvature="0" /></g><g
       id="g3632"
       transform="translate(464.3252,356.1104)"><path
         d="m 0,0 -64.326,0 0,30 60.199,0 L 0,0 Z"
         style="fill:#ffffff;fill-opacity:1;fill-rule:nonzero;stroke:none"
         id="path3634"
         inkscape:connector-curvature="0" /></g><g
       id="g3636"
       transform="translate(460.1982,386.1104)"><path
         d="m 0,0 -60.199,0 0,30 56.072,0 L 0,0 Z"
         style="fill:#000000;fill-opacity:1;fill-rule:nonzero;stroke:none"
         id="path3638"
         inkscape:connector-curvature="0" /></g><g
       id="g3640"
       transform="translate(456.0713,416.1104)"><path
         d="m 0,0 -56.072,0 0,30 51.945,0 L 0,0 Z"
         style="fill:#ffffff;fill-opacity:1;fill-rule:nonzero;stroke:none"
         id="path3642"
         inkscape:connector-curvature="0" /></g><g
       id="g3644"
       transform="translate(451.9443,446.1104)"><path
         d="m 0,0 -51.945,0 0,30 47.818,0 L 0,0 Z"
         style="fill:#000000;fill-opacity:1;fill-rule:nonzero;stroke:none"
         id="path3646"
         inkscape:connector-curvature="0" /></g><g
       id="g3648"
       transform="translate(447.8174,476.1104)"><path
         d="m 0,0 -47.818,0 10e-4,30 43.69,0 L 0,0 Z"
         style="fill:#ffffff;fill-opacity:1;fill-rule:nonzero;stroke:none"
         id="path3650"
         inkscape:connector-curvature="0" /></g><g
       id="g3652"
       transform="translate(443.6904,506.1104)"><path
         d="m 0,0 -43.69,0 0,30 39.562,0 L 0,0 Z"
         style="fill:#000000;fill-opacity:1;fill-rule:nonzero;stroke:none"
         id="path3654"
         inkscape:connector-curvature="0" /></g><g
       id="g3656"
       transform="translate(545.1582,296.1104)"><path
         d="M 0,0 -72.579,0 -76.706,30 -8.254,30 0,0 Z"
         style="fill:#000000;fill-opacity:1;fill-rule:nonzero;stroke:none"
         id="path3658"
         inkscape:connector-curvature="0" /></g><g
       id="g3660"
       transform="translate(536.9043,326.1104)"><path
         d="M 0,0 -68.452,0 -72.579,30 -8.254,30 0,0 Z"
         style="fill:#ffffff;fill-opacity:1;fill-rule:nonzero;stroke:none"
         id="path3662"
         inkscape:connector-curvature="0" /></g><g
       id="g3664"
       transform="translate(528.6504,356.1104)"><path
         d="M 0,0 -64.325,0 -68.452,30 -8.254,30 0,0 Z"
         style="fill:#000000;fill-opacity:1;fill-rule:nonzero;stroke:none"
         id="path3666"
         inkscape:connector-curvature="0" /></g><g
       id="g3668"
       transform="translate(520.3965,386.1104)"><path
         d="M 0,0 -60.198,0 -64.325,30 -8.254,30 0,0 Z"
         style="fill:#ffffff;fill-opacity:1;fill-rule:nonzero;stroke:none"
         id="path3670"
         inkscape:connector-curvature="0" /></g><g
       id="g3672"
       transform="translate(512.1426,416.1104)"><path
         d="M 0,0 -56.071,0 -60.198,30 -8.254,30 0,0 Z"
         style="fill:#000000;fill-opacity:1;fill-rule:nonzero;stroke:none"
         id="path3674"
         inkscape:connector-curvature="0" /></g><g
       id="g3676"
       transform="translate(503.8887,446.1104)"><path
         d="M 0,0 -51.944,0 -56.071,30 -8.254,30 0,0 Z"
         style="fill:#ffffff;fill-opacity:1;fill-rule:nonzero;stroke:none"
         id="path3678"
         inkscape:connector-curvature="0" /></g><g
       id="g3680"
       transform="translate(495.6348,476.1104)"><path
         d="m 0,0 -47.817,0 -4.127,30 43.69,0 L 0,0 Z"
         style="fill:#000000;fill-opacity:1;fill-rule:nonzero;stroke:none"
         id="path3682"
         inkscape:connector-curvature="0" /></g><g
       id="g3684"
       transform="translate(487.3809,506.1104)"><path
         d="M 0,0 -43.69,0 -47.818,30 -8.254,30 0,0 Z"
         style="fill:#ffffff;fill-opacity:1;fill-rule:nonzero;stroke:none"
         id="path3686"
         inkscape:connector-curvature="0" /></g><g
       id="g3688"
       transform="translate(617.7383,296.1104)"><path
         d="m 0,0 -72.58,0 -8.254,30 68.452,0 L 0,0 Z"
         style="fill:#ffffff;fill-opacity:1;fill-rule:nonzero;stroke:none"
         id="path3690"
         inkscape:connector-curvature="0" /></g><g
       id="g3692"
       transform="translate(605.3564,326.1104)"><path
         d="m 0,0 -68.452,0 -8.254,30 64.325,0 L 0,0 Z"
         style="fill:#000000;fill-opacity:1;fill-rule:nonzero;stroke:none"
         id="path3694"
         inkscape:connector-curvature="0" /></g><g
       id="g3696"
       transform="translate(592.9756,356.1104)"><path
         d="m 0,0 -64.325,0 -8.254,30 60.198,0 L 0,0 Z"
         style="fill:#ffffff;fill-opacity:1;fill-rule:nonzero;stroke:none"
         id="path3698"
         inkscape:connector-curvature="0" /></g><g
       id="g3700"
       transform="translate(580.5947,386.1104)"><path
         d="m 0,0 -60.198,0 -8.254,30 56.071,0 L 0,0 Z"
         style="fill:#000000;fill-opacity:1;fill-rule:nonzero;stroke:none"
         id="path3702"
         inkscape:connector-curvature="0" /></g><g
       id="g3704"
       transform="translate(568.2139,416.1104)"><path
         d="m 0,0 -56.071,0 -8.254,30 51.944,0 L 0,0 Z"
         style="fill:#ffffff;fill-opacity:1;fill-rule:nonzero;stroke:none"
         id="path3706"
         inkscape:connector-curvature="0" /></g><g
       id="g3708"
       transform="translate(555.833,446.1104)"><path
         d="m 0,0 -51.944,0 -8.254,30 47.817,0 L 0,0 Z"
         style="fill:#000000;fill-opacity:1;fill-rule:nonzero;stroke:none"
         id="path3710"
         inkscape:connector-curvature="0" /></g><g
       id="g3712"
       transform="translate(543.4521,476.1104)"><path
         d="m 0,0 -47.817,0 -8.254,30 43.69,0 L 0,0 Z"
         style="fill:#ffffff;fill-opacity:1;fill-rule:nonzero;stroke:none"
         id="path3714"
         inkscape:connector-curvature="0" /></g><g
       id="g3716"
       transform="translate(531.0713,506.1104)"><path
         d="m 0,0 -43.69,0 -8.254,30 39.563,0 L 0,0 Z"
         style="fill:#000000;fill-opacity:1;fill-rule:nonzero;stroke:none"
         id="path3718"
         inkscape:connector-curvature="0" /></g><g
       id="g3720"
       transform="translate(690.3174,296.1104)"><path
         d="M 0,0 -72.579,0 -84.961,30 -16.508,30 0,0 Z"
         style="fill:#000000;fill-opacity:1;fill-rule:nonzero;stroke:none"
         id="path3722"
         inkscape:connector-curvature="0" /></g><g
       id="g3724"
       transform="translate(673.8096,326.1104)"><path
         d="M 0,0 -68.453,0 -80.834,30 -16.509,30 0,0 Z"
         style="fill:#ffffff;fill-opacity:1;fill-rule:nonzero;stroke:none"
         id="path3726"
         inkscape:connector-curvature="0" /></g><g
       id="g3728"
       transform="translate(657.3008,356.1104)"><path
         d="M 0,0 -64.325,0 -76.706,30 -16.508,30 0,0 Z"
         style="fill:#000000;fill-opacity:1;fill-rule:nonzero;stroke:none"
         id="path3730"
         inkscape:connector-curvature="0" /></g><g
       id="g3732"
       transform="translate(640.793,386.1104)"><path
         d="M 0,0 -60.198,0 -72.579,30 -16.508,30 0,0 Z"
         style="fill:#ffffff;fill-opacity:1;fill-rule:nonzero;stroke:none"
         id="path3734"
         inkscape:connector-curvature="0" /></g><g
       id="g3736"
       transform="translate(624.2852,416.1104)"><path
         d="M 0,0 -56.071,0 -68.452,30 -16.508,30 0,0 Z"
         style="fill:#000000;fill-opacity:1;fill-rule:nonzero;stroke:none"
         id="path3738"
         inkscape:connector-curvature="0" /></g><g
       id="g3740"
       transform="translate(607.7773,446.1104)"><path
         d="M 0,0 -51.944,0 -64.325,30 -16.508,30 0,0 Z"
         style="fill:#ffffff;fill-opacity:1;fill-rule:nonzero;stroke:none"
         id="path3742"
         inkscape:connector-curvature="0" /></g><g
       id="g3744"
       transform="translate(591.2695,476.1104)"><path
         d="m 0,0 -47.817,0 -12.381,30 43.69,0 L 0,0 Z"
         style="fill:#000000;fill-opacity:1;fill-rule:nonzero;stroke:none"
         id="path3746"
         inkscape:connector-curvature="0" /></g><g
       id="g3748"
       transform="translate(574.7617,506.1104)"><path
         d="M 0,0 -43.69,0 -56.071,30 -16.508,30 0,0 Z"
         style="fill:#ffffff;fill-opacity:1;fill-rule:nonzero;stroke:none"
         id="path3750"
         inkscape:connector-curvature="0" /></g><g
       id="g3752"><g
         id="g3754"
         clip-path="url(#clipPath3756)"><g
           id="g3760"><g
             id="g3762" /><g
             id="g3778"><g
               clip-path="url(#clipPath3764)"
               id="g3780"
               style="opacity:0.19999701"><g
                 id="g3782"><g
                   clip-path="url(#clipPath3768)"
                   id="g3784"><g
                     id="g3786"><g
                       id="g3788"><path
                         d="m 735.893,281.11 -671.786,0 167.143,270 337.5,0 167.143,-270 z"
                         style="fill:url(#linearGradient3772);stroke:none"
                         id="path3790"
                         inkscape:connector-curvature="0" /></g></g></g></g></g></g></g></g></g><path
       d="m 64.107,248.89 671.785,0 0,32.221 -671.785,0 0,-32.221 z"
       style="fill:#683c11;fill-opacity:1;fill-rule:nonzero;stroke:none"
       id="path3792"
       inkscape:connector-curvature="0" /><text
       transform="scale(1,-1)"
       style="font-variant:normal;font-weight:normal;font-stretch:normal;font-size:44px;font-family:Roboto;-inkscape-font-specification:Roboto-Regular;writing-mode:lr-tb;fill:#000000;fill-opacity:1;fill-rule:nonzero;stroke:none"
       id="text3910"
       x="318.35123"
       y="-145.00536"><tspan
         x="318.35123"
         y="-145.00536"
         sodipodi:role="line"
         id="tspan3912">ChessT</tspan></text>
<text
       transform="matrix(1,0,0,-1,406.7275,148.8887)"
       style="font-variant:normal;font-weight:900;font-stretch:normal;font-size:44px;font-family:'Roboto Black';-inkscape-font-specification:Roboto-Black;writing-mode:lr-tb;fill:#000000;fill-opacity:1;fill-rule:nonzero;stroke:none"
       id="text3914"
       inkscape:transform-center-x="35.597326"><tspan
         x="0"
         y="0"
         sodipodi:role="line"
         id="tspan3916" /></text>
<g
       id="g3922"><g
         id="g3924"
         clip-path="url(#clipPath3926)"><g
           id="g3930"
           transform="translate(222.3145,135.918)"><path
             d="M 0,0 355.371,0"
             style="fill:none;stroke:#000000;stroke-width:2;stroke-linecap:butt;stroke-linejoin:miter;stroke-miterlimit:10;stroke-dasharray:none;stroke-opacity:1"
             id="path3932"
             inkscape:connector-curvature="0" /></g></g></g></g></svg>